<svg xmlns="http://www.w3.org/2000/svg" xmlns:xlink="http://www.w3.org/1999/xlink" width="500" zoomAndPan="magnify" viewBox="0 0 375 374.999991" height="500" preserveAspectRatio="xMidYMid meet" version="1.0"><defs><clipPath id="983e253c01"><path d="M 122.316406 112.5 L 252.816406 112.5 L 252.816406 262.5 L 122.316406 262.5 Z M 122.316406 112.5 " clip-rule="nonzero"/></clipPath><clipPath id="09ee2553d9"><path d="M 189 168 L 218.675781 168 L 218.675781 200 L 189 200 Z M 189 168 " clip-rule="nonzero"/></clipPath><clipPath id="497d7b04fe"><path d="M 190.167969 186.296875 L 200.625 186.296875 L 200.625 198.433594 L 190.167969 198.433594 Z M 190.167969 186.296875 " clip-rule="nonzero"/></clipPath><clipPath id="7d91509b4e"><path d="M 189.59375 199.769531 C 189.59375 199.769531 189.328125 190.980469 189.625 189.84375 C 191.59375 182.300781 202.175781 180.949219 208.773438 177.15625 C 211.410156 175.640625 213.828125 173.894531 215.9375 171.898438 C 216.636719 171.242188 217.308594 170.558594 217.890625 169.828125 C 218.089844 169.582031 218.277344 169.335938 218.441406 169.074219 C 218.523438 168.945312 218.675781 168.6875 218.675781 168.6875 C 218.675781 168.6875 218.378906 170.058594 218.269531 170.550781 C 217.9375 172.066406 217.613281 173.585938 217.214844 175.089844 C 215.578125 181.320312 213.203125 186.671875 206.546875 190.457031 C 203.757812 192.039062 200.574219 192.976562 197.589844 194.25 C 195.59375 195.101562 193.707031 196.105469 192.183594 197.480469 C 191.667969 197.945312 189.59375 199.769531 189.59375 199.769531 Z M 189.59375 199.769531 " clip-rule="nonzero"/></clipPath><clipPath id="6ea6d0b3f9"><path d="M 156.425781 168 L 186 168 L 186 200 L 156.425781 200 Z M 156.425781 168 " clip-rule="nonzero"/></clipPath><clipPath id="8db9a34ce7"><path d="M 174.480469 186.171875 L 184.9375 186.171875 L 184.9375 198.308594 L 174.480469 198.308594 Z M 174.480469 186.171875 " clip-rule="nonzero"/></clipPath><clipPath id="49cab2684a"><path d="M 185.507812 199.671875 C 185.507812 199.671875 185.777344 190.882812 185.476562 189.746094 C 183.507812 182.203125 172.925781 180.851562 166.328125 177.058594 C 163.695312 175.542969 161.277344 173.796875 159.164062 171.800781 C 158.46875 171.144531 157.796875 170.460938 157.210938 169.730469 C 157.015625 169.484375 156.828125 169.238281 156.664062 168.976562 C 156.582031 168.847656 156.425781 168.589844 156.425781 168.589844 C 156.425781 168.589844 156.726562 169.960938 156.832031 170.453125 C 157.164062 171.96875 157.492188 173.488281 157.886719 174.992188 C 159.523438 181.222656 161.898438 186.574219 168.558594 190.359375 C 171.34375 191.941406 174.527344 192.878906 177.515625 194.152344 C 179.507812 195.003906 181.398438 196.007812 182.921875 197.378906 C 183.433594 197.84375 185.507812 199.671875 185.507812 199.671875 Z M 185.507812 199.671875 " clip-rule="nonzero"/></clipPath><clipPath id="6d8f61ae12"><path d="M 171 224 L 204 224 L 204 248.597656 L 171 248.597656 Z M 171 224 " clip-rule="nonzero"/></clipPath><clipPath id="3812b612c8"><path d="M 171.367188 151.125 L 203.859375 151.125 L 203.859375 183.324219 L 171.367188 183.324219 Z M 171.367188 151.125 " clip-rule="nonzero"/></clipPath><clipPath id="d75a63455c"><path d="M 177.21875 151.253906 L 197.886719 151.253906 L 197.886719 183.324219 L 177.21875 183.324219 Z M 177.21875 151.253906 " clip-rule="nonzero"/></clipPath><clipPath id="dc10c163d8"><path d="M 187.570312 151.125 C 196.515625 151.125 203.773438 158.339844 203.773438 167.222656 C 203.773438 176.109375 196.515625 183.320312 187.570312 183.320312 C 178.628906 183.320312 171.367188 176.109375 171.367188 167.222656 C 171.367188 158.339844 178.628906 151.125 187.570312 151.125 Z M 187.570312 151.125 " clip-rule="nonzero"/></clipPath><clipPath id="a1ac35b8c9"><path d="M 180.703125 153.855469 L 199.378906 153.855469 L 199.378906 183.324219 L 180.703125 183.324219 Z M 180.703125 153.855469 " clip-rule="nonzero"/></clipPath><clipPath id="d926ac7348"><path d="M 187.570312 151.125 C 196.515625 151.125 203.773438 158.339844 203.773438 167.222656 C 203.773438 176.109375 196.515625 183.320312 187.570312 183.320312 C 178.628906 183.320312 171.367188 176.109375 171.367188 167.222656 C 171.367188 158.339844 178.628906 151.125 187.570312 151.125 Z M 187.570312 151.125 " clip-rule="nonzero"/></clipPath><clipPath id="b13afca803"><path d="M 178.339844 155.464844 L 196.890625 155.464844 L 196.890625 178.992188 L 178.339844 178.992188 Z M 178.339844 155.464844 " clip-rule="nonzero"/></clipPath><clipPath id="0585d1f3cb"><path d="M 187.589844 155.511719 C 194.089844 155.511719 199.367188 160.757812 199.367188 167.222656 C 199.367188 173.6875 194.089844 178.933594 187.589844 178.933594 C 181.089844 178.933594 175.816406 173.6875 175.816406 167.222656 C 175.816406 160.757812 181.089844 155.511719 187.589844 155.511719 Z M 187.589844 155.511719 " clip-rule="nonzero"/></clipPath><clipPath id="6fbbd09b7f"><path d="M 182.695312 155.464844 L 199.378906 155.464844 L 199.378906 178.992188 L 182.695312 178.992188 Z M 182.695312 155.464844 " clip-rule="nonzero"/></clipPath><clipPath id="8b30aed821"><path d="M 187.589844 155.511719 C 194.089844 155.511719 199.367188 160.757812 199.367188 167.222656 C 199.367188 173.6875 194.089844 178.933594 187.589844 178.933594 C 181.089844 178.933594 175.816406 173.6875 175.816406 167.222656 C 175.816406 160.757812 181.089844 155.511719 187.589844 155.511719 Z M 187.589844 155.511719 " clip-rule="nonzero"/></clipPath><clipPath id="eda4610254"><path d="M 180.578125 158.929688 L 192.160156 158.929688 L 192.160156 177.132812 L 180.578125 177.132812 Z M 180.578125 158.929688 " clip-rule="nonzero"/></clipPath><clipPath id="84ef96d7f4"><path d="M 187.589844 155.511719 C 194.089844 155.511719 199.367188 160.757812 199.367188 167.222656 C 199.367188 173.6875 194.089844 178.933594 187.589844 178.933594 C 181.089844 178.933594 175.816406 173.6875 175.816406 167.222656 C 175.816406 160.757812 181.089844 155.511719 187.589844 155.511719 Z M 187.589844 155.511719 " clip-rule="nonzero"/></clipPath><clipPath id="543b94613e"><path d="M 180.578125 158.683594 L 195.023438 158.683594 L 195.023438 163.386719 L 180.578125 163.386719 Z M 180.578125 158.683594 " clip-rule="nonzero"/></clipPath><clipPath id="80d963b6a5"><path d="M 187.589844 155.511719 C 194.089844 155.511719 199.367188 160.757812 199.367188 167.222656 C 199.367188 173.6875 194.089844 178.933594 187.589844 178.933594 C 181.089844 178.933594 175.816406 173.6875 175.816406 167.222656 C 175.816406 160.757812 181.089844 155.511719 187.589844 155.511719 Z M 187.589844 155.511719 " clip-rule="nonzero"/></clipPath><clipPath id="c833895b4f"><path d="M 180.578125 162.273438 L 195.023438 162.273438 L 195.023438 166.855469 L 180.578125 166.855469 Z M 180.578125 162.273438 " clip-rule="nonzero"/></clipPath><clipPath id="68ba5a83e7"><path d="M 187.589844 155.511719 C 194.089844 155.511719 199.367188 160.757812 199.367188 167.222656 C 199.367188 173.6875 194.089844 178.933594 187.589844 178.933594 C 181.089844 178.933594 175.816406 173.6875 175.816406 167.222656 C 175.816406 160.757812 181.089844 155.511719 187.589844 155.511719 Z M 187.589844 155.511719 " clip-rule="nonzero"/></clipPath><clipPath id="494c035321"><path d="M 181.453125 159.796875 L 191.285156 159.796875 L 191.285156 176.265625 L 181.453125 176.265625 Z M 181.453125 159.796875 " clip-rule="nonzero"/></clipPath><clipPath id="330367fa86"><path d="M 187.589844 155.511719 C 194.089844 155.511719 199.367188 160.757812 199.367188 167.222656 C 199.367188 173.6875 194.089844 178.933594 187.589844 178.933594 C 181.089844 178.933594 175.816406 173.6875 175.816406 167.222656 C 175.816406 160.757812 181.089844 155.511719 187.589844 155.511719 Z M 187.589844 155.511719 " clip-rule="nonzero"/></clipPath><clipPath id="4a9e86ebe9"><path d="M 181.453125 159.550781 L 194.148438 159.550781 L 194.148438 162.523438 L 181.453125 162.523438 Z M 181.453125 159.550781 " clip-rule="nonzero"/></clipPath><clipPath id="9432613e8c"><path d="M 187.589844 155.511719 C 194.089844 155.511719 199.367188 160.757812 199.367188 167.222656 C 199.367188 173.6875 194.089844 178.933594 187.589844 178.933594 C 181.089844 178.933594 175.816406 173.6875 175.816406 167.222656 C 175.816406 160.757812 181.089844 155.511719 187.589844 155.511719 Z M 187.589844 155.511719 " clip-rule="nonzero"/></clipPath><clipPath id="ab26e1f223"><path d="M 181.453125 163.140625 L 194.148438 163.140625 L 194.148438 165.988281 L 181.453125 165.988281 Z M 181.453125 163.140625 " clip-rule="nonzero"/></clipPath><clipPath id="80323f279f"><path d="M 187.589844 155.511719 C 194.089844 155.511719 199.367188 160.757812 199.367188 167.222656 C 199.367188 173.6875 194.089844 178.933594 187.589844 178.933594 C 181.089844 178.933594 175.816406 173.6875 175.816406 167.222656 C 175.816406 160.757812 181.089844 155.511719 187.589844 155.511719 Z M 187.589844 155.511719 " clip-rule="nonzero"/></clipPath></defs><rect x="-37.5" width="450" fill="#ffffff" y="-37.499999" height="449.999989" fill-opacity="1"/><rect x="-37.5" width="450" fill="#ffffff" y="-37.499999" height="449.999989" fill-opacity="1"/><rect x="-37.5" width="450" fill="#ffffff" y="-37.499999" height="449.999989" fill-opacity="1"/><g clip-path="url(#983e253c01)"><path fill="#36701d" d="M 230.015625 262.484375 L 144.695312 262.484375 C 143.964844 262.484375 143.238281 262.445312 142.511719 262.375 C 141.785156 262.300781 141.0625 262.195312 140.347656 262.050781 C 139.628906 261.910156 138.921875 261.730469 138.226562 261.519531 C 137.527344 261.308594 136.839844 261.0625 136.164062 260.78125 C 135.492188 260.503906 134.832031 260.191406 134.1875 259.847656 C 133.546875 259.503906 132.917969 259.128906 132.3125 258.722656 C 131.707031 258.316406 131.121094 257.882812 130.554688 257.421875 C 129.992188 256.957031 129.453125 256.46875 128.933594 255.953125 C 128.417969 255.4375 127.929688 254.898438 127.464844 254.332031 C 127.003906 253.769531 126.566406 253.183594 126.164062 252.578125 C 125.757812 251.972656 125.382812 251.347656 125.035156 250.703125 C 124.691406 250.0625 124.378906 249.402344 124.101562 248.730469 C 123.820312 248.054688 123.574219 247.371094 123.363281 246.671875 C 123.148438 245.972656 122.972656 245.269531 122.828125 244.554688 C 122.6875 243.835938 122.578125 243.117188 122.503906 242.390625 C 122.433594 241.664062 122.398438 240.9375 122.394531 240.210938 L 122.394531 180.464844 C 122.394531 179.058594 122.523438 177.664062 122.792969 176.28125 C 123.058594 174.898438 123.457031 173.558594 123.984375 172.253906 C 124.515625 170.949219 125.164062 169.707031 125.933594 168.527344 C 126.703125 167.347656 127.578125 166.253906 128.558594 165.242188 L 174.199219 118.09375 C 174.625 117.652344 175.070312 117.234375 175.539062 116.839844 C 176.003906 116.441406 176.488281 116.070312 176.996094 115.722656 C 177.5 115.375 178.019531 115.054688 178.554688 114.757812 C 179.09375 114.464844 179.644531 114.195312 180.207031 113.957031 C 180.769531 113.71875 181.34375 113.507812 181.929688 113.324219 C 182.515625 113.140625 183.105469 112.992188 183.707031 112.867188 C 184.308594 112.746094 184.914062 112.652344 185.523438 112.59375 C 186.132812 112.53125 186.742188 112.5 187.355469 112.5 C 187.96875 112.5 188.578125 112.53125 189.1875 112.59375 C 189.796875 112.652344 190.402344 112.746094 191.003906 112.867188 C 191.601562 112.992188 192.195312 113.140625 192.78125 113.324219 C 193.367188 113.507812 193.941406 113.71875 194.503906 113.957031 C 195.066406 114.195312 195.617188 114.464844 196.152344 114.757812 C 196.691406 115.054688 197.210938 115.375 197.714844 115.722656 C 198.21875 116.070312 198.707031 116.441406 199.171875 116.839844 C 199.640625 117.234375 200.085938 117.652344 200.507812 118.09375 L 250.40625 169.636719 C 250.71875 169.957031 250.996094 170.304688 251.238281 170.679688 C 251.484375 171.050781 251.6875 171.445312 251.851562 171.863281 C 252.019531 172.277344 252.140625 172.703125 252.222656 173.140625 C 252.304688 173.582031 252.339844 174.023438 252.335938 174.46875 C 252.328125 174.917969 252.277344 175.359375 252.183594 175.792969 C 252.089844 176.230469 251.957031 176.65625 251.777344 177.0625 C 251.601562 177.472656 251.382812 177.863281 251.128906 178.230469 C 250.875 178.597656 250.589844 178.933594 250.265625 179.246094 C 249.945312 179.554688 249.597656 179.832031 249.222656 180.074219 C 248.84375 180.316406 248.449219 180.519531 248.035156 180.679688 C 247.617188 180.84375 247.1875 180.964844 246.75 181.042969 C 246.308594 181.125 245.867188 181.160156 245.417969 181.152344 C 244.972656 181.140625 244.53125 181.089844 244.09375 180.996094 C 243.65625 180.898438 243.234375 180.761719 242.824219 180.582031 C 242.414062 180.402344 242.027344 180.183594 241.660156 179.929688 C 241.296875 179.675781 240.957031 179.386719 240.648438 179.0625 L 190.75 127.539062 C 190.53125 127.308594 190.292969 127.101562 190.03125 126.917969 C 189.773438 126.734375 189.496094 126.582031 189.203125 126.453125 C 188.910156 126.328125 188.609375 126.230469 188.300781 126.167969 C 187.988281 126.101562 187.671875 126.070312 187.355469 126.070312 C 187.035156 126.070312 186.722656 126.101562 186.410156 126.167969 C 186.097656 126.230469 185.796875 126.328125 185.507812 126.453125 C 185.214844 126.582031 184.9375 126.734375 184.679688 126.917969 C 184.417969 127.101562 184.179688 127.308594 183.960938 127.539062 L 138.316406 174.667969 C 137.5625 175.449219 136.984375 176.339844 136.582031 177.347656 C 136.179688 178.351562 135.980469 179.398438 135.988281 180.480469 L 135.988281 240.210938 C 135.988281 240.78125 136.046875 241.347656 136.160156 241.910156 C 136.269531 242.46875 136.4375 243.015625 136.65625 243.542969 C 136.875 244.070312 137.144531 244.574219 137.464844 245.050781 C 137.78125 245.523438 138.144531 245.964844 138.546875 246.371094 C 138.953125 246.773438 139.394531 247.136719 139.871094 247.453125 C 140.347656 247.769531 140.847656 248.039062 141.378906 248.257812 C 141.90625 248.476562 142.453125 248.644531 143.011719 248.757812 C 143.574219 248.867188 144.140625 248.925781 144.714844 248.925781 L 230.035156 248.925781 C 230.480469 248.925781 230.921875 248.96875 231.359375 249.054688 C 231.796875 249.144531 232.21875 249.269531 232.632812 249.441406 C 233.042969 249.613281 233.433594 249.820312 233.804688 250.066406 C 234.175781 250.316406 234.519531 250.597656 234.832031 250.910156 C 235.148438 251.226562 235.429688 251.570312 235.675781 251.9375 C 235.925781 252.308594 236.132812 252.699219 236.304688 253.109375 C 236.472656 253.523438 236.601562 253.945312 236.691406 254.382812 C 236.777344 254.820312 236.820312 255.261719 236.820312 255.703125 C 236.820312 256.148438 236.777344 256.589844 236.691406 257.027344 C 236.601562 257.464844 236.472656 257.886719 236.304688 258.300781 C 236.132812 258.710938 235.925781 259.101562 235.675781 259.472656 C 235.429688 259.839844 235.148438 260.183594 234.832031 260.5 C 234.519531 260.8125 234.175781 261.09375 233.804688 261.34375 C 233.433594 261.589844 233.042969 261.796875 232.632812 261.96875 C 232.21875 262.140625 231.796875 262.265625 231.359375 262.355469 C 230.921875 262.441406 230.480469 262.484375 230.035156 262.484375 Z M 230.015625 262.484375 " fill-opacity="1" fill-rule="nonzero"/></g><path fill="#356e04" d="M 189.566406 218.855469 C 189.5 218.417969 189.101562 216.574219 188.792969 213.835938 C 188.628906 212.371094 188.523438 210.667969 188.4375 208.820312 C 188.265625 205.15625 188.222656 200.96875 188.164062 197.121094 C 188.078125 191.855469 188.082031 187.222656 188.050781 185.414062 L 187.050781 185.421875 C 187.058594 187.230469 187.074219 191.859375 187 197.121094 C 186.941406 200.96875 186.902344 205.15625 186.726562 208.820312 C 186.636719 210.667969 186.53125 212.367188 186.367188 213.835938 C 186.054688 216.570312 185.652344 218.410156 185.582031 218.847656 L 189.566406 218.855469 " fill-opacity="1" fill-rule="evenodd"/><path fill="#584040" d="M 187.582031 217.394531 C 196.253906 217.394531 203.292969 218.683594 203.292969 220.269531 C 203.292969 221.859375 196.253906 223.148438 187.582031 223.148438 C 178.910156 223.148438 171.871094 221.859375 171.871094 220.269531 C 171.871094 218.683594 178.910156 217.394531 187.582031 217.394531 " fill-opacity="1" fill-rule="evenodd"/><path fill="#a44f03" d="M 205.542969 222.011719 C 205.542969 220.71875 204.492188 219.671875 203.195312 219.671875 L 171.972656 219.671875 C 170.675781 219.671875 169.621094 220.71875 169.621094 222.011719 C 169.621094 223.300781 170.675781 224.347656 171.972656 224.347656 L 203.195312 224.347656 C 204.492188 224.347656 205.542969 223.300781 205.542969 222.011719 " fill-opacity="1" fill-rule="evenodd"/><g clip-path="url(#09ee2553d9)"><path fill="#356e04" d="M 189.59375 199.769531 C 189.59375 199.769531 189.328125 190.980469 189.625 189.84375 C 191.59375 182.300781 202.175781 180.949219 208.773438 177.15625 C 211.410156 175.640625 213.828125 173.894531 215.9375 171.898438 C 216.636719 171.242188 217.308594 170.558594 217.890625 169.828125 C 218.089844 169.582031 218.277344 169.335938 218.441406 169.074219 C 218.523438 168.945312 218.675781 168.6875 218.675781 168.6875 C 218.675781 168.6875 218.378906 170.058594 218.269531 170.550781 C 217.9375 172.066406 217.613281 173.585938 217.214844 175.089844 C 215.578125 181.320312 213.203125 186.671875 206.546875 190.457031 C 203.757812 192.039062 200.574219 192.976562 197.589844 194.25 C 195.59375 195.101562 193.707031 196.105469 192.183594 197.480469 C 191.667969 197.945312 189.59375 199.769531 189.59375 199.769531 " fill-opacity="1" fill-rule="evenodd"/></g><g clip-path="url(#497d7b04fe)"><g clip-path="url(#7d91509b4e)"><path fill="#ffffff" d="M 190.230469 198.363281 C 190.617188 197.21875 191.070312 196.136719 191.585938 195.085938 C 191.925781 194.386719 192.300781 193.714844 192.714844 193.0625 C 192.960938 192.675781 193.21875 192.300781 193.492188 191.929688 C 193.671875 191.6875 193.859375 191.445312 194.046875 191.207031 C 194.46875 190.679688 194.917969 190.167969 195.425781 189.683594 C 195.753906 189.371094 196.09375 189.066406 196.464844 188.773438 C 196.953125 188.386719 197.476562 188.050781 198.019531 187.738281 C 198.855469 187.257812 199.714844 186.835938 200.558594 186.390625 C 200.5625 186.386719 200.5625 186.386719 200.5625 186.382812 C 200.558594 186.378906 200.558594 186.375 200.554688 186.378906 C 199.644531 186.683594 198.714844 186.953125 197.8125 187.304688 C 197.195312 187.542969 196.601562 187.820312 196.035156 188.152344 C 195.605469 188.414062 195.195312 188.6875 194.816406 188.988281 C 194.21875 189.453125 193.679688 189.964844 193.207031 190.519531 C 192.988281 190.773438 192.789062 191.035156 192.605469 191.304688 C 192.324219 191.714844 192.074219 192.136719 191.851562 192.578125 C 191.484375 193.300781 191.183594 194.054688 190.945312 194.835938 C 190.597656 195.972656 190.382812 197.148438 190.21875 198.363281 C 190.21875 198.363281 190.21875 198.367188 190.222656 198.371094 C 190.226562 198.371094 190.230469 198.367188 190.230469 198.363281 " fill-opacity="1" fill-rule="evenodd"/></g></g><g clip-path="url(#6ea6d0b3f9)"><path fill="#356e04" d="M 185.507812 199.671875 C 185.507812 199.671875 185.777344 190.882812 185.476562 189.746094 C 183.507812 182.203125 172.925781 180.851562 166.328125 177.058594 C 163.695312 175.542969 161.277344 173.796875 159.164062 171.800781 C 158.46875 171.144531 157.796875 170.460938 157.210938 169.730469 C 157.015625 169.484375 156.828125 169.238281 156.664062 168.976562 C 156.582031 168.847656 156.425781 168.589844 156.425781 168.589844 C 156.425781 168.589844 156.726562 169.960938 156.832031 170.453125 C 157.164062 171.96875 157.492188 173.488281 157.886719 174.992188 C 159.523438 181.222656 161.898438 186.574219 168.558594 190.359375 C 171.34375 191.941406 174.527344 192.878906 177.515625 194.152344 C 179.507812 195.003906 181.398438 196.007812 182.921875 197.378906 C 183.433594 197.84375 185.507812 199.671875 185.507812 199.671875 " fill-opacity="1" fill-rule="evenodd"/></g><g clip-path="url(#8db9a34ce7)"><g clip-path="url(#49cab2684a)"><path fill="#ffffff" d="M 184.886719 198.261719 C 184.726562 197.046875 184.519531 195.871094 184.175781 194.734375 C 183.9375 193.945312 183.640625 193.191406 183.273438 192.464844 C 183.050781 192.027344 182.800781 191.601562 182.523438 191.191406 C 182.335938 190.917969 182.136719 190.65625 181.921875 190.402344 C 181.445312 189.847656 180.902344 189.335938 180.304688 188.871094 C 179.921875 188.574219 179.511719 188.300781 179.078125 188.039062 C 178.511719 187.707031 177.917969 187.433594 177.296875 187.195312 C 176.390625 186.847656 175.460938 186.582031 174.550781 186.28125 C 174.546875 186.277344 174.542969 186.28125 174.539062 186.285156 C 174.539062 186.285156 174.542969 186.289062 174.542969 186.292969 C 175.386719 186.738281 176.246094 187.167969 177.078125 187.652344 C 177.621094 187.964844 178.140625 188.300781 178.625 188.691406 C 178.996094 188.984375 179.335938 189.292969 179.660156 189.605469 C 180.167969 190.089844 180.613281 190.601562 181.035156 191.128906 C 181.222656 191.367188 181.410156 191.605469 181.585938 191.847656 C 181.859375 192.21875 182.121094 192.59375 182.367188 192.976562 C 182.78125 193.628906 183.15625 194.296875 183.503906 194.996094 C 184.019531 196.046875 184.480469 197.125 184.871094 198.265625 C 184.875 198.269531 184.878906 198.273438 184.878906 198.273438 C 184.882812 198.269531 184.886719 198.265625 184.886719 198.261719 " fill-opacity="1" fill-rule="evenodd"/></g></g><g clip-path="url(#6d8f61ae12)"><path fill="#d78c40" d="M 203.890625 224.210938 L 171.761719 224.210938 L 176.554688 248.570312 L 198.949219 248.570312 L 203.890625 224.210938 " fill-opacity="1" fill-rule="evenodd"/></g><g clip-path="url(#3812b612c8)"><path fill="#ebd26f" d="M 187.570312 151.125 C 196.515625 151.125 203.773438 158.339844 203.773438 167.222656 C 203.773438 176.109375 196.515625 183.320312 187.570312 183.320312 C 178.628906 183.320312 171.367188 176.109375 171.367188 167.222656 C 171.367188 158.339844 178.628906 151.125 187.570312 151.125 " fill-opacity="1" fill-rule="evenodd"/></g><g clip-path="url(#d75a63455c)"><g clip-path="url(#dc10c163d8)"><path fill="#f4e6af" d="M 197.832031 153.015625 L 194.902344 151.332031 L 177.308594 181.636719 L 180.242188 183.320312 L 197.832031 153.015625 " fill-opacity="1" fill-rule="evenodd"/></g></g><g clip-path="url(#a1ac35b8c9)"><g clip-path="url(#d926ac7348)"><path fill="#f4e6b0" d="M 199.367188 154.480469 L 198.363281 153.90625 L 180.773438 184.210938 L 181.773438 184.785156 L 199.367188 154.480469 " fill-opacity="1" fill-rule="evenodd"/></g></g><path fill="#ffa829" d="M 187.550781 154.476562 C 194.625 154.476562 200.367188 160.1875 200.367188 167.222656 C 200.367188 174.257812 194.625 179.96875 187.550781 179.96875 C 180.480469 179.96875 174.738281 174.257812 174.738281 167.222656 C 174.738281 160.1875 180.480469 154.476562 187.550781 154.476562 " fill-opacity="1" fill-rule="evenodd"/><path fill="#f6b353" d="M 187.589844 155.511719 C 194.089844 155.511719 199.367188 160.757812 199.367188 167.222656 C 199.367188 173.6875 194.089844 178.933594 187.589844 178.933594 C 181.089844 178.933594 175.816406 173.6875 175.816406 167.222656 C 175.816406 160.757812 181.089844 155.511719 187.589844 155.511719 " fill-opacity="1" fill-rule="evenodd"/><g clip-path="url(#b13afca803)"><g clip-path="url(#0585d1f3cb)"><path fill="#f7bf6c" d="M 196.824219 154.882812 L 193.878906 153.191406 L 178.355469 179.933594 L 181.300781 181.625 L 196.824219 154.882812 " fill-opacity="1" fill-rule="evenodd"/></g></g><g clip-path="url(#6fbbd09b7f)"><g clip-path="url(#8b30aed821)"><path fill="#f7bf6c" d="M 199.367188 154.882812 L 198.332031 154.289062 L 182.808594 181.03125 L 183.84375 181.625 L 199.367188 154.882812 " fill-opacity="1" fill-rule="evenodd"/></g></g><g clip-path="url(#eda4610254)"><g clip-path="url(#84ef96d7f4)"><path stroke-linecap="square" transform="matrix(0.01245, 0, 0, -0.0123828, 156.426719, 248.829622)" fill="none" stroke-linejoin="round" d="M 2479.216865 7080.587717 C 2608.797689 7070.493044 2674.686244 6949.041508 2689.43273 6853.142113 C 2714.846886 6687.210924 2589.972388 6536.737203 2418.9759 6520.648817 C 2374.108932 6516.232398 2119.026099 6515.286022 2119.026099 6515.286022 C 2119.026099 6515.286022 2455.685238 6167.0198 2641.428211 5967.334547 " stroke="#ffa829" stroke-width="250" stroke-opacity="1" stroke-miterlimit="10"/></g></g><g clip-path="url(#543b94613e)"><g clip-path="url(#80d963b6a5)"><path stroke-linecap="square" transform="matrix(0.01245, 0, 0, -0.0123828, 156.426719, 248.829622)" fill="none" stroke-linejoin="round" d="M 2119.026099 7080.587717 L 2921.925201 7094.783351 " stroke="#ffa829" stroke-width="250" stroke-opacity="1" stroke-miterlimit="10"/></g></g><g clip-path="url(#c833895b4f)"><g clip-path="url(#68ba5a83e7)"><path stroke-linecap="square" transform="matrix(0.01245, 0, 0, -0.0123828, 156.426719, 248.829622)" fill="none" stroke-linejoin="round" d="M 2119.026099 6804.561499 L 2921.925201 6809.924294 " stroke="#ffa829" stroke-width="250" stroke-opacity="1" stroke-miterlimit="10"/></g></g><g clip-path="url(#494c035321)"><g clip-path="url(#330367fa86)"><path stroke-linecap="square" transform="matrix(0.01245, 0, 0, -0.0123828, 156.426719, 248.829622)" fill="none" stroke-linejoin="round" d="M 2479.216865 7080.587717 C 2608.797689 7070.493044 2674.686244 6949.041508 2689.43273 6853.142113 C 2714.846886 6687.210924 2589.972388 6536.737203 2418.9759 6520.648817 C 2374.108932 6516.232398 2119.026099 6515.286022 2119.026099 6515.286022 C 2119.026099 6515.286022 2455.685238 6167.0198 2641.428211 5967.334547 " stroke="#ebd26f" stroke-width="150" stroke-opacity="1" stroke-miterlimit="10"/></g></g><g clip-path="url(#4a9e86ebe9)"><g clip-path="url(#9432613e8c)"><path stroke-linecap="square" transform="matrix(0.01245, 0, 0, -0.0123828, 156.426719, 248.829622)" fill="none" stroke-linejoin="round" d="M 2119.026099 7080.587717 L 2921.925201 7094.783351 " stroke="#ebd26f" stroke-width="150" stroke-opacity="1" stroke-miterlimit="10"/></g></g><g clip-path="url(#ab26e1f223)"><g clip-path="url(#80323f279f)"><path stroke-linecap="square" transform="matrix(0.01245, 0, 0, -0.0123828, 156.426719, 248.829622)" fill="none" stroke-linejoin="round" d="M 2119.026099 6804.561499 L 2921.925201 6809.924294 " stroke="#ebd26f" stroke-width="150" stroke-opacity="1" stroke-miterlimit="10"/></g></g></svg>